<svg width="197" height="66" xmlns="http://www.w3.org/2000/svg"><g fill="#763880" fill-rule="evenodd"><path d="M16.01 3.442v42.164c0 3.01-1.68 17.308-15.688 19.45 1.796-1.044 10.13-3.821 10.13-18.929V3.442c0-1.331-.578-2.14-1.562-2.602h8.625c-.87.462-1.505 1.27-1.505 2.602M73.25 20.467c-2.602 1.57-5.559 2.137-7.91 2.137-6.214 0-11.679-4.331-11.679-10.894 0-5.337 4.05-11.022 12.023-11.022 2.607 0 4.964.725 7.408 1.79 0 0 .345 4.775.284 4.649-2.008-4.648-5.902-5.118-7.44-5.118-5.996 0-9.069 4.205-9.069 9.293 0 4.519 2.476 9.92 9.04 9.92 1.41 0 5.238-.093 7.624-5.088.063-.093-.28 4.333-.28 4.333M52.71 30.134S44.569 8.95 41.278 1.183H35.9l-.031-.1-.042.1h-.067l.033.084c-5.03 11.864-11.396 28.867-11.396 28.867H26.5L36.713 3.668l10.185 26.586 5.812-.12M19.736 35.582s4.348 5.653 18.31 5.653c19.018 0 20.723-5.653 20.723-5.653H19.736M97.93 2.207v6.956c0 .702-.391 4.038-3.66 4.537.418-.242 2.364-.891 2.364-4.416V2.207c0-.31-.136-.5-.365-.608h2.013c-.203.108-.352.298-.352.608M107.547 2.207l-.041 5.658c0 2.215-1.43 3.04-3.12 3.04-1.486 0-3.39-.728-3.39-3.012V2.207c0-.31-.216-.5-.42-.608h2.163c-.217.108-.446.298-.446.608v5.714c0 .93.323 2.362 2.228 2.362 1.81 0 2.377-1.147 2.377-2.362l-.053-5.714c0-.31-.136-.5-.352-.608h1.419c-.216.108-.365.298-.365.608M113.624 2.18c-.499 0-1.417-.026-1.716.027v7.97c.488.026 1.123.026 1.528.026 3.079 0 3.97-2.148 3.97-4.162 0-1.673-.986-3.86-3.782-3.86zm-.256 8.605h-3.107a.651.651 0 0 0 .352-.608v-7.97c0-.31-.136-.5-.352-.608h3.363c4.484 0 5.187 3.268 5.187 4.442 0 2.162-1.593 4.744-5.443 4.744zM120.822 10.785c.217-.124.367-.312.367-.608v-7.97c0-.31-.15-.5-.367-.608h2c-.202.108-.351.298-.351.608v7.97c0 .296.149.484.352.608h-2M133.533 9.987c-1.122.674-2.39.918-3.403.918-2.676 0-5.025-1.864-5.025-4.687 0-2.295 1.742-4.74 5.172-4.74 1.123 0 2.134.311 3.188.769 0 0 .149 2.053.12 1.999-.862-2-2.538-2.202-3.2-2.202-2.577 0-3.902 1.81-3.902 3.997 0 1.947 1.066 4.27 3.888 4.27.61 0 2.257-.041 3.283-2.189.028-.04-.121 1.865-.121 1.865M135.95 10.785c.217-.124.365-.312.365-.608v-7.97c0-.31-.148-.5-.365-.608h1.998c-.2.108-.35.298-.35.608v7.97c0 .296.15.484.35.608h-1.998M143.353 3.694s-.92 2.322-1.513 3.78h3.037c-.7-1.7-1.524-3.78-1.524-3.78zm2.296 7.09c.35-.163.446-.352.335-.662a49.04 49.04 0 0 1-.877-2.067h-3.497a40.366 40.366 0 0 0-.854 2.067c-.106.31-.064.526.286.663h-1.647c.378-.258.5-.406.621-.663.23-.513 3.7-8.739 3.7-8.739s3.484 8.226 3.703 8.74c.106.282.2.444.674.662h-2.444zM154.805 10.785h-5.374c.228-.124.378-.312.378-.608v-7.97c0-.31-.15-.5-.378-.608h2.024c-.215.108-.364.298-.364.608v7.9c.284.042.823.096 1.446.096 1.62-.026 2.08-.026 2.54-.852l-.272 1.434M98.308 18.887s-.918 2.324-1.513 3.781h3.04c-.704-1.7-1.527-3.781-1.527-3.781zm2.296 7.091c.352-.16.446-.35.338-.662a44.96 44.96 0 0 1-.878-2.067h-3.498a39.887 39.887 0 0 0-.85 2.067c-.11.312-.069.528.283.662h-1.648c.378-.257.5-.405.62-.662.23-.512 3.702-8.738 3.702-8.738l3.7 8.738c.11.284.204.447.676.662h-2.445zM106.924 17.334c-.62 0-.905.014-.905.014v3.998c.122.055.38.095.664.095.729 0 2.31-.258 2.31-2.108 0-1.229-.704-1.999-2.069-1.999zm1.784 4.363c-.42.188-1.647.5-2.689.082v3.591c0 .298.15.486.38.608h-2.012c.202-.122.377-.31.377-.608v-7.968c0-.31-.175-.5-.377-.608h2.579c2.702 0 3.364 1.457 3.364 2.512 0 1.472-1.202 2.2-1.622 2.39zM114.826 17.334c-.62 0-.905.014-.905.014v3.998c.122.055.378.095.663.095.73 0 2.309-.258 2.309-2.108 0-1.229-.702-1.999-2.067-1.999zm1.783 4.363c-.418.188-1.647.5-2.688.082v3.591c0 .298.149.486.378.608h-2.011c.201-.122.378-.31.378-.608v-7.968c0-.31-.177-.5-.378-.608h2.58c2.7 0 3.361 1.457 3.361 2.512 0 1.472-1.202 2.2-1.62 2.39zM124.552 17.24c-1.999 0-3.5 1.472-3.5 3.943 0 2.958 1.865 4.295 3.526 4.295 2 0 3.43-1.54 3.43-3.971.028-2.605-1.43-4.267-3.456-4.267zm-.096 8.859c-2.62-.052-4.93-2.065-4.862-4.848.067-2.189 1.932-4.673 5.132-4.579 2.23.041 4.836 1.716 4.768 4.795-.067 3.079-2.783 4.701-5.038 4.632zM131.75 25.978c.215-.122.364-.31.364-.608v-7.968c0-.31-.149-.5-.363-.608h1.998c-.203.108-.352.297-.352.608v7.968c0 .298.15.486.352.608h-1.998M143.759 17.402v8.834s-6.43-7.808-6.43-7.944v7.078c0 .298.134.486.378.608h-1.366a.67.67 0 0 0 .353-.608v-7.454c0-.393 0-.42-.163-.636-.149-.16-.312-.35-.623-.486h1.867l5.332 6.579v-5.971c0-.31-.146-.5-.35-.608h1.365c-.216.108-.363.297-.363.608M152.307 17.443s-1.216-.095-2.202-.095v8.022a.65.65 0 0 0 .35.608h-1.998c.23-.122.35-.31.35-.608v-8.022c-1.01 0-2.215.095-2.215.095-.322 0-.58.31-.7.527v-1.176h7.105l.014 1.176c-.137-.218-.354-.5-.704-.527M161.95 25.978a.648.648 0 0 0 .352-.608v-7.01c0-.134.028-.284.028-.284l-.097.312-3.335 7.78-3.27-7.564-.12-.353s.027.23.027.353v6.766c0 .298.162.486.378.608h-1.363a.652.652 0 0 0 .35-.608v-7.968c0-.258-.191-.5-.418-.608h1.822l2.97 6.93 2.934-6.93h1.74c-.214.108-.35.297-.35.608v7.968c0 .298.136.486.35.608h-1.998M171.904 25.978h-5.43c.242-.122.405-.282.405-.608v-7.968c0-.31-.163-.5-.376-.608h5.077l.027 1.054c-.27-.31-.554-.474-1.134-.474-.257 0-2.322-.026-2.322-.026v3.255h2.199c.191 0 .405-.216.474-.38v1.312c-.07-.162-.283-.378-.474-.378h-2.2v4.159c.297.026.933.095 1.567.082 1.458 0 1.97 0 2.473-.852l-.286 1.432M181.428 17.402v8.834s-6.432-7.808-6.432-7.944v7.078c0 .298.136.486.38.608h-1.366a.67.67 0 0 0 .35-.608v-7.454c0-.393 0-.42-.159-.636-.148-.16-.312-.35-.624-.486h1.868l5.332 6.579v-5.971c0-.31-.147-.5-.35-.608h1.364c-.217.108-.363.297-.363.608M189.437 17.443s-1.217-.095-2.203-.095v8.022a.65.65 0 0 0 .35.608h-1.998c.23-.122.35-.31.35-.608v-8.022c-1.011 0-2.214.095-2.214.095-.323 0-.582.31-.702.527v-1.176h7.105l.013 1.176c-.137-.218-.35-.5-.7-.527M194.013 26.099c-1.174 0-2.012-.471-2.51-.757l-.042-2.025c.284.973 1.013 2.215 2.458 2.215 1.459 0 1.837-1.148 1.837-1.809 0-1.298-.985-1.554-2.281-2.216-1.31-.648-1.973-1.335-1.973-2.445 0-1.619 1.513-2.39 2.795-2.39.5 0 1.297.094 1.931.514l.07 1.782c-.162-.648-.92-1.754-2.19-1.754-1.147 0-1.497.849-1.497 1.43 0 .85.537 1.178 1.835 1.809 1.283.662 2.552 1.082 2.552 2.892 0 1.688-1.538 2.754-2.985 2.754M103.617 40.377c-1.121.675-2.39.918-3.404.918-2.674 0-5.025-1.863-5.025-4.686 0-2.298 1.743-4.74 5.174-4.74 1.12 0 2.134.31 3.186.769 0 0 .15 2.053.122 1.999-.864-1.999-2.539-2.202-3.2-2.202-2.581 0-3.904 1.81-3.904 3.999 0 1.944 1.067 4.266 3.89 4.266.608 0 2.256-.04 3.282-2.188.026-.04-.12 1.865-.12 1.865M110.37 32.435c-1.999 0-3.499 1.472-3.499 3.944 0 2.957 1.864 4.295 3.525 4.295 2 0 3.431-1.54 3.431-3.972.027-2.607-1.43-4.267-3.457-4.267zm-.094 8.86c-2.622-.054-4.93-2.066-4.865-4.85.07-2.187 1.933-4.671 5.134-4.577 2.228.038 4.835 1.715 4.769 4.795-.068 3.08-2.784 4.698-5.038 4.632zM124.389 41.173c.217-.12.35-.31.35-.608v-7.009c0-.135.028-.285.028-.285l-.094.312-3.337 7.778-3.269-7.562-.12-.352s.028.23.028.352v6.766c0 .297.16.487.376.608h-1.363c.217-.12.35-.31.35-.608v-7.968c0-.258-.19-.5-.419-.608h1.825l2.97 6.928 2.932-6.928h1.741c-.215.107-.351.296-.351.608v7.968a.65.65 0 0 0 .351.608h-1.998M136.33 41.173c.216-.12.35-.31.35-.608v-7.009c0-.135.026-.285.026-.285l-.093.312-3.336 7.778-3.27-7.562-.121-.352s.028.23.028.352v6.766c0 .297.162.487.378.608h-1.364c.215-.12.35-.31.35-.608v-7.968c0-.258-.188-.5-.418-.608h1.823l2.97 6.928 2.934-6.928h1.741c-.216.107-.352.296-.352.608v7.968c0 .297.136.487.352.608h-1.999M140.908 41.173a.658.658 0 0 0 .364-.608v-7.968c0-.312-.15-.5-.364-.608h1.997c-.201.107-.35.296-.35.608v7.968c0 .297.149.487.35.608h-1.997M147.808 41.295c-1.173 0-2.01-.472-2.511-.756l-.041-2.027c.284.974 1.014 2.216 2.46 2.216 1.456 0 1.834-1.15 1.834-1.811 0-1.296-.984-1.553-2.282-2.215-1.31-.647-1.971-1.337-1.971-2.444 0-1.62 1.513-2.39 2.796-2.39.5 0 1.298.094 1.93.514l.069 1.782c-.163-.65-.92-1.757-2.189-1.757-1.148 0-1.5.85-1.5 1.433 0 .851.542 1.175 1.838 1.81 1.281.662 2.553 1.08 2.553 2.888 0 1.691-1.54 2.757-2.986 2.757M155.305 41.295c-1.174 0-2.012-.472-2.514-.756l-.04-2.027c.286.974 1.015 2.216 2.46 2.216 1.458 0 1.837-1.15 1.837-1.811 0-1.296-.986-1.553-2.285-2.215-1.31-.647-1.972-1.337-1.972-2.444 0-1.62 1.513-2.39 2.798-2.39.5 0 1.295.094 1.931.514l.066 1.782c-.16-.65-.917-1.757-2.185-1.757-1.15 0-1.5.85-1.5 1.433 0 .851.539 1.175 1.837 1.81 1.282.662 2.553 1.08 2.553 2.888 0 1.691-1.542 2.757-2.986 2.757M160.505 41.173a.657.657 0 0 0 .365-.608v-7.968c0-.312-.149-.5-.365-.608h2c-.203.107-.35.296-.35.608v7.968c0 .297.147.487.35.608h-2M169.446 32.435c-2 0-3.498 1.472-3.498 3.944 0 2.957 1.864 4.295 3.525 4.295 2 0 3.43-1.54 3.43-3.972.028-2.607-1.43-4.267-3.457-4.267zm-.094 8.86c-2.621-.054-4.93-2.066-4.863-4.85.068-2.187 1.931-4.671 5.132-4.577 2.23.038 4.837 1.715 4.767 4.795-.067 3.08-2.781 4.698-5.036 4.632zM183.506 32.597v8.833s-6.429-7.807-6.429-7.941v7.076c0 .297.134.487.38.608h-1.366a.67.67 0 0 0 .352-.608V33.11c0-.393 0-.42-.163-.635-.148-.162-.31-.35-.621-.486h1.864l5.336 6.577v-5.97c0-.311-.15-.5-.35-.607h1.364c-.218.107-.367.296-.367.608"/></g></svg>